<?xml version="1.0" standalone="no"?>
<!DOCTYPE svg PUBLIC "-//W3C//DTD SVG 20010904//EN"
 "http://www.w3.org/TR/2001/REC-SVG-20010904/DTD/svg10.dtd">
<svg version="1.0" xmlns="http://www.w3.org/2000/svg"
 width="900.000000pt" height="900.000000pt" viewBox="0 0 900.000000 900.000000"
 preserveAspectRatio="xMidYMid meet">
<metadata>
Created by potrace 1.14, written by Peter Selinger 2001-2017
</metadata>
<g transform="translate(0.000000,900.000000) scale(0.100000,-0.100000)"
fill="#000000" stroke="none">
<path d="M3954 7601 c-2 -2 -4 -13 -4 -23 0 -10 -6 -18 -13 -18 -20 0 -50 -37
-41 -51 4 -8 3 -10 -4 -5 -7 4 -12 3 -12 -1 0 -5 -12 -10 -27 -11 -16 -1 -36
-12 -45 -25 -13 -16 -27 -22 -60 -23 -86 -1 -105 -4 -128 -24 -13 -11 -32 -20
-44 -20 -47 0 -63 -12 -75 -50 -14 -47 -6 -87 21 -101 10 -6 23 -21 28 -35 5
-13 16 -24 25 -24 9 0 20 -11 25 -25 5 -14 16 -25 25 -25 9 0 20 -11 25 -25 6
-15 17 -25 29 -25 13 0 21 -8 23 -22 2 -15 11 -24 26 -26 12 -2 26 -11 31 -21
6 -10 28 -24 51 -31 23 -7 46 -22 51 -32 5 -10 18 -18 28 -18 10 0 29 -11 43
-24 14 -12 43 -26 63 -29 21 -3 47 -15 59 -26 14 -13 42 -23 81 -27 33 -4 68
-14 79 -23 15 -14 47 -16 207 -16 146 0 192 3 198 13 4 7 41 18 81 23 41 6 94
21 119 35 25 13 54 24 63 24 10 0 28 11 40 25 12 14 30 25 39 25 10 0 23 8 28
18 5 10 28 24 50 31 22 6 45 21 51 31 6 11 17 20 24 20 8 0 53 39 101 88 120
121 127 129 142 164 11 26 11 34 -2 48 -8 9 -15 21 -15 27 0 18 -26 34 -61 36
-19 1 -39 9 -46 18 -9 12 -30 17 -80 18 -54 1 -71 5 -84 21 -9 10 -35 25 -58
32 -28 9 -41 19 -41 30 0 11 -8 18 -19 18 -13 0 -24 11 -32 35 -10 27 -17 34
-33 30 -12 -2 -39 -7 -61 -10 -22 -4 -43 -12 -47 -18 -5 -9 -93 -12 -310 -13
-340 -2 -408 2 -408 21 0 9 -17 14 -51 17 -28 1 -53 1 -55 -1z m-47 -125 c0
-8 -5 -14 -11 -13 -6 1 -10 -5 -8 -14 1 -9 -5 -16 -13 -16 -9 0 -13 8 -11 21
2 12 8 21 14 21 6 0 14 3 18 8 10 10 11 9 11 -7z m61 -7 c3 -11 2 -12 -6 -1
-7 10 -11 7 -15 -15 -5 -29 7 -45 30 -36 17 6 17 23 1 19 -7 -1 -10 -1 -5 1 4
3 7 11 7 18 0 8 4 16 9 19 5 4 7 -3 4 -14 -4 -15 0 -20 13 -20 16 0 17 -2 4
-10 -12 -7 -8 -10 15 -10 23 0 27 3 15 10 -12 7 -8 10 15 10 22 0 26 -3 16 -9
-9 -6 11 -10 58 -13 50 -2 76 1 83 10 6 7 13 10 16 7 3 -3 12 1 21 8 14 11 14
10 2 -6 -12 -15 -12 -17 2 -12 8 4 18 1 22 -4 3 -6 12 -8 18 -4 6 4 26 6 44 4
19 -1 33 2 33 8 0 6 5 11 11 11 6 0 9 -7 5 -15 -4 -10 1 -15 15 -15 13 0 19 5
16 13 -3 8 3 13 17 14 11 0 15 -1 9 -4 -7 -3 -13 -11 -13 -19 0 -12 5 -11 27
3 30 20 73 25 73 8 0 -6 3 -7 8 0 13 19 34 16 39 -6 4 -16 8 -18 14 -7 7 11
11 10 19 -2 5 -8 10 -10 10 -4 0 5 -6 16 -12 23 -11 10 -10 11 5 6 9 -4 17
-12 17 -19 0 -6 8 -2 16 9 11 14 18 16 21 8 3 -7 17 -13 31 -12 24 0 25 1 7 9
-16 7 -17 9 -3 9 19 1 50 -37 42 -51 -3 -4 3 -8 13 -9 10 0 13 -3 6 -6 -7 -2
-13 -10 -13 -16 0 -15 -46 -37 -77 -37 -13 0 -23 -3 -23 -8 0 -4 -23 -7 -50
-6 -28 0 -53 -3 -56 -8 -7 -10 -134 -7 -156 4 -10 5 -18 5 -18 0 0 -11 -137
-8 -164 3 -14 6 -17 5 -12 -3 5 -8 -1 -11 -18 -10 -15 1 -26 6 -26 10 0 4 -11
8 -25 8 -18 0 -23 4 -18 16 4 10 14 14 29 11 15 -2 30 3 40 14 10 11 12 19 6
19 -7 0 -12 -4 -12 -9 0 -13 -138 -29 -151 -17 -9 8 -10 7 -5 -1 4 -7 2 -13
-3 -14 -38 -4 -58 -1 -76 8 -11 6 -26 8 -33 6 -7 -3 -22 3 -32 12 -10 9 -24
14 -29 10 -7 -4 -11 3 -11 17 0 13 -3 34 -6 48 -4 16 -2 20 3 13 12 -17 55
-23 71 -11 9 8 12 4 12 -13 0 -19 2 -21 10 -9 5 8 7 26 4 40 -4 20 -3 22 5 10
9 -12 11 -11 11 8 0 25 21 26 28 1z m225 -36 c-7 -2 -19 -2 -25 0 -7 3 -2 5
12 5 14 0 19 -2 13 -5z m154 1 c-3 -3 -12 -4 -19 -1 -8 3 -5 6 6 6 11 1 17 -2
13 -5z m421 -19 c-3 -3 -9 2 -12 12 -6 14 -5 15 5 6 7 -7 10 -15 7 -18z m-948
-13 c0 -15 -2 -15 -10 -2 -13 20 -13 33 0 25 6 -3 10 -14 10 -23z"/>
<path d="M4480 7419 c0 -5 5 -7 10 -4 6 3 10 8 10 11 0 2 -4 4 -10 4 -5 0 -10
-5 -10 -11z"/>
<path d="M3916 7375 c4 -8 8 -15 10 -15 2 0 4 7 4 15 0 8 -4 15 -10 15 -5 0
-7 -7 -4 -15z"/>
<path d="M4396 7377 c3 -10 9 -15 12 -12 3 3 0 11 -7 18 -10 9 -11 8 -5 -6z"/>
<path d="M4616 7375 c-3 -8 -1 -15 4 -15 6 0 10 7 10 15 0 8 -2 15 -4 15 -2 0
-6 -7 -10 -15z"/>
<path d="M4225 7361 c-3 -5 -1 -12 5 -16 5 -3 10 1 10 9 0 18 -6 21 -15 7z"/>
<path d="M4700 7366 c0 -2 7 -7 16 -10 8 -3 12 -2 9 4 -6 10 -25 14 -25 6z"/>
<path d="M4316 7340 c29 -4 56 -10 61 -13 5 -3 15 -1 23 5 12 8 12 9 -2 4 -10
-3 -18 -2 -18 2 0 4 -26 8 -57 9 l-58 1 51 -8z"/>
<path d="M4326 7322 c-3 -5 1 -9 9 -9 8 0 12 4 9 9 -3 4 -7 8 -9 8 -2 0 -6 -4
-9 -8z"/>
<path d="M2815 5794 c-22 -8 -84 -22 -137 -31 -59 -10 -98 -21 -98 -28 0 -6
-22 -17 -49 -25 -32 -9 -51 -20 -54 -32 -3 -10 -14 -18 -26 -18 -32 0 -69 -21
-74 -41 -3 -11 -14 -19 -25 -19 -12 0 -23 -9 -27 -19 -3 -10 -15 -21 -26 -24
-11 -3 -23 -14 -25 -24 -3 -10 -15 -23 -27 -28 -12 -6 -23 -20 -25 -32 -2 -15
-10 -23 -22 -23 -12 0 -21 -10 -25 -31 -4 -17 -18 -40 -31 -52 -13 -11 -24
-31 -24 -43 0 -12 -11 -35 -24 -51 -15 -19 -25 -45 -28 -81 -3 -31 -13 -60
-24 -73 -17 -19 -19 -38 -19 -173 0 -121 3 -158 17 -186 9 -19 22 -61 28 -93
6 -32 18 -61 26 -64 7 -3 16 -20 20 -39 3 -19 17 -44 30 -57 13 -12 24 -33 24
-45 0 -15 7 -26 20 -29 10 -3 22 -14 26 -26 6 -20 51 -73 93 -111 13 -11 34
-31 48 -43 13 -13 31 -23 39 -23 8 0 19 -11 24 -24 6 -18 19 -26 50 -31 23 -4
44 -14 50 -25 6 -11 27 -21 52 -25 26 -4 50 -15 60 -28 16 -21 23 -22 252 -22
226 0 236 1 255 21 11 13 38 24 65 28 28 5 57 17 73 32 14 13 34 24 43 24 9 0
25 9 34 19 10 11 30 25 46 31 16 7 36 23 45 36 8 13 22 24 29 24 8 0 16 9 19
21 3 11 15 23 26 26 12 3 21 11 21 19 0 7 14 27 30 44 17 17 30 41 30 54 0 14
9 27 24 34 17 7 25 22 30 51 3 22 13 44 23 49 10 6 19 31 25 73 4 35 16 71 26
82 14 16 17 42 19 151 3 141 -9 232 -31 250 -8 6 -16 38 -19 74 -4 44 -11 67
-25 80 -10 9 -25 36 -32 60 -7 23 -19 42 -27 42 -7 0 -13 11 -13 25 0 18 -7
26 -25 31 -15 4 -25 13 -25 24 0 10 -7 23 -15 30 -8 7 -15 9 -15 4 0 -5 -9 6
-20 24 -11 17 -26 32 -34 32 -7 0 -16 9 -19 20 -3 12 -14 20 -26 20 -14 0 -23
8 -27 25 -4 17 -13 25 -29 25 -12 0 -35 11 -50 24 -16 13 -43 27 -62 31 -18 3
-33 10 -33 15 0 12 -54 27 -122 35 -32 3 -60 10 -63 15 -14 22 -170 32 -220
14z m330 -108 c28 -14 60 -26 72 -26 12 0 35 -11 51 -25 17 -14 37 -25 46 -25
9 0 21 -9 28 -20 7 -11 18 -20 25 -20 12 0 82 -59 112 -94 9 -11 28 -33 44
-49 15 -17 27 -36 27 -43 0 -8 11 -21 24 -29 15 -10 26 -29 30 -55 4 -25 12
-40 21 -40 9 0 16 -14 20 -37 10 -64 27 -113 38 -106 6 4 8 -2 5 -15 -4 -12
-3 -22 0 -22 6 0 10 -24 15 -100 2 -19 -3 -26 -20 -28 -13 -2 -23 -7 -23 -12
0 -5 -10 -12 -21 -15 -16 -5 -18 -9 -9 -15 8 -5 -15 -10 -55 -12 -62 -3 -68
-1 -76 20 -6 15 -17 22 -34 22 -22 0 -25 -4 -25 -34 0 -18 -9 -53 -19 -77 -10
-24 -22 -65 -25 -91 -4 -25 -13 -49 -20 -51 -7 -3 -19 -26 -27 -51 -7 -25 -19
-46 -27 -46 -7 0 -18 -13 -23 -30 -7 -19 -18 -30 -30 -30 -11 0 -19 -7 -19
-16 0 -9 -13 -21 -30 -27 -17 -7 -30 -19 -30 -28 0 -12 -12 -19 -42 -24 -25
-4 -50 -16 -59 -27 -20 -26 -140 -39 -279 -31 -81 5 -97 10 -118 30 -12 12
-31 23 -40 23 -36 0 -60 13 -71 36 -6 13 -19 24 -29 24 -10 0 -24 11 -30 25
-6 14 -18 25 -27 25 -8 0 -15 7 -15 15 0 9 -11 26 -24 38 -12 12 -29 39 -35
59 -7 21 -19 42 -28 46 -10 6 -19 36 -25 93 -13 99 -13 127 -3 236 6 66 11 82
26 86 11 3 20 19 26 47 4 23 11 40 14 38 10 -6 39 24 39 41 1 18 54 81 70 81
5 0 12 11 16 25 5 19 13 25 35 25 19 0 29 5 29 15 0 26 -45 17 -75 -15 -16
-17 -35 -28 -41 -26 -7 3 -15 -6 -18 -18 -3 -13 -15 -26 -25 -29 -11 -3 -26
-20 -34 -38 -8 -19 -24 -43 -36 -53 -11 -11 -21 -28 -21 -39 0 -12 -9 -30 -20
-42 -15 -16 -22 -41 -27 -99 -5 -63 -10 -80 -23 -83 -10 -3 -22 -15 -28 -28
-8 -17 -17 -23 -34 -20 -13 3 -44 6 -71 7 -29 2 -46 7 -43 14 2 6 -9 19 -25
28 -34 20 -36 33 -10 86 11 22 15 40 9 40 -7 0 -7 4 0 13 5 6 13 38 17 70 4
31 11 57 16 57 5 0 9 6 9 14 0 7 7 19 15 26 8 7 15 23 15 37 0 13 11 35 25 49
14 14 25 33 25 44 0 10 9 21 19 25 11 3 22 14 26 23 7 24 74 92 89 92 8 0 16
9 19 20 3 11 14 20 25 20 11 0 22 8 24 18 3 10 23 24 47 32 23 7 46 21 51 30
5 10 26 20 50 23 23 3 51 13 62 23 27 25 94 32 293 29 163 -2 173 -4 220 -29z"/>
<path d="M2651 5441 c-22 -14 -4 -28 29 -23 28 4 52 21 33 23 -4 0 -17 2 -28
4 -11 2 -26 0 -34 -4z"/>
<path d="M3085 5425 c30 -13 45 -11 45 6 0 5 -17 9 -37 8 l-38 -1 30 -13z"/>
<path d="M3160 5391 c0 -19 49 -36 62 -23 15 15 11 18 -29 27 -22 4 -33 3 -33
-4z"/>
<path d="M3242 5333 c2 -10 13 -22 26 -28 12 -5 22 -15 22 -20 0 -22 25 -65
38 -65 7 0 15 -14 19 -30 3 -17 14 -37 25 -44 13 -9 22 -33 28 -74 4 -33 15
-73 23 -88 l15 -29 7 48 c9 55 -10 137 -31 137 -8 0 -16 16 -20 38 -4 24 -15
46 -30 57 -13 10 -24 26 -24 37 0 10 -10 22 -24 27 -13 5 -26 19 -29 30 -7 27
-50 30 -45 4z"/>
<path d="M5871 5799 c-30 -5 -60 -14 -66 -19 -9 -8 -121 -29 -157 -30 -5 0 -8
-7 -8 -15 0 -8 -6 -15 -12 -15 -33 0 -88 -22 -88 -35 0 -8 -12 -17 -27 -21
-56 -12 -63 -16 -63 -31 0 -8 -13 -20 -30 -26 -16 -6 -30 -17 -30 -24 0 -8
-11 -18 -25 -23 -15 -6 -25 -17 -25 -29 0 -11 -9 -22 -20 -26 -11 -3 -23 -17
-26 -31 -3 -13 -13 -24 -20 -24 -15 0 -28 -26 -38 -71 -3 -15 -14 -29 -25 -32
-14 -3 -21 -17 -26 -51 -4 -25 -11 -46 -15 -46 -14 0 -22 -32 -35 -135 -7 -55
-18 -119 -24 -143 -9 -34 -8 -59 3 -115 8 -40 18 -100 22 -135 4 -35 12 -69
19 -76 8 -7 19 -33 26 -57 7 -24 18 -48 24 -54 18 -15 35 -51 35 -74 0 -14 9
-23 25 -27 18 -4 25 -13 25 -29 0 -15 8 -26 20 -30 11 -3 20 -12 20 -18 0 -15
59 -71 83 -80 11 -4 21 -16 24 -27 3 -11 14 -20 24 -20 11 0 24 -11 30 -24 8
-17 22 -26 50 -30 22 -4 42 -14 48 -25 6 -11 27 -21 53 -25 23 -4 50 -14 60
-22 22 -21 115 -32 263 -32 145 1 244 10 253 25 4 6 34 18 67 28 33 9 65 25
73 36 7 10 23 19 36 19 12 0 33 11 45 24 13 13 33 27 46 30 12 3 25 15 28 27
3 11 14 23 25 26 11 3 22 14 25 25 3 11 14 22 25 25 11 3 23 15 26 28 3 12 14
25 24 27 11 3 23 22 30 46 8 25 20 43 32 47 13 4 20 15 20 30 0 13 11 37 25
53 16 20 25 42 25 66 0 24 7 42 23 56 22 21 22 26 22 241 0 184 -2 221 -15
229 -8 5 -11 10 -7 10 5 0 2 7 -6 15 -8 8 -18 37 -22 65 -5 34 -13 54 -24 58
-16 7 -20 16 -29 65 -3 18 -10 27 -22 27 -13 0 -20 9 -22 28 -2 19 -9 28 -25
30 -13 2 -23 9 -23 17 0 18 -61 85 -77 85 -7 0 -18 11 -23 24 -5 14 -19 26
-32 28 -15 2 -24 11 -26 26 -3 17 -10 22 -33 22 -19 0 -38 9 -52 24 -12 12
-38 26 -58 30 -21 3 -42 13 -49 20 -10 13 -83 29 -171 39 -15 1 -33 8 -41 15
-21 17 -122 23 -187 11z m222 -84 c79 -5 112 -12 124 -24 9 -9 19 -16 22 -17
3 0 13 -3 21 -7 8 -3 32 -8 52 -12 23 -3 42 -14 48 -25 6 -11 19 -20 29 -20 9
0 33 -13 51 -30 18 -16 39 -30 46 -30 6 0 19 -11 28 -25 9 -14 23 -25 31 -25
13 0 19 -12 16 -32 0 -4 8 -10 19 -13 11 -4 28 -24 38 -46 11 -22 23 -39 28
-37 5 2 14 -12 19 -29 6 -18 19 -39 28 -45 10 -8 22 -39 28 -73 6 -32 17 -64
25 -70 9 -6 18 -43 24 -99 l11 -90 -33 -32 c-29 -28 -41 -32 -93 -34 -82 -3
-85 -3 -85 19 0 11 -4 23 -10 26 -5 3 -10 14 -10 25 0 10 -6 20 -14 23 -10 4
-15 -15 -20 -89 -5 -63 -13 -106 -26 -127 -10 -18 -21 -51 -25 -75 -4 -24 -15
-48 -25 -55 -11 -7 -24 -25 -29 -40 -6 -15 -17 -27 -26 -27 -9 0 -15 -9 -15
-21 0 -13 -8 -23 -21 -26 -11 -3 -25 -16 -30 -29 -5 -15 -17 -24 -29 -24 -13
0 -24 -10 -30 -25 -7 -19 -17 -25 -40 -25 -20 0 -39 -9 -54 -25 -23 -25 -25
-25 -189 -25 -139 0 -170 3 -196 18 -17 9 -31 20 -31 25 0 4 -11 7 -24 7 -14
0 -31 8 -38 18 -7 10 -30 26 -50 35 -20 10 -40 26 -43 37 -3 10 -14 21 -23 24
-17 6 -42 49 -42 72 0 6 -9 14 -20 17 -12 3 -20 14 -20 27 0 25 -18 61 -37 75
-11 8 -14 48 -14 182 0 110 -4 175 -11 179 -11 7 -30 -15 -22 -27 2 -4 0 -10
-6 -14 -5 -3 -10 -30 -10 -60 0 -47 -4 -56 -30 -78 -24 -21 -37 -24 -72 -20
-55 6 -70 11 -64 21 2 4 -9 14 -25 21 l-30 13 7 91 c4 51 11 100 16 110 5 9 6
22 3 27 -3 5 3 15 14 22 11 8 22 32 26 53 4 22 13 45 20 50 6 6 22 29 33 51
12 23 28 44 37 47 8 4 15 16 15 27 0 12 9 24 24 29 13 5 26 19 29 30 3 13 13
21 26 21 14 0 21 6 21 20 0 13 9 22 25 26 14 3 30 14 35 23 5 10 27 24 50 31
23 7 46 22 51 32 6 12 21 18 41 18 18 0 48 11 67 24 30 20 54 26 136 31 55 4
102 9 103 10 2 2 11 2 20 0 10 -1 66 -6 125 -10z m-933 -735 c0 -5 -5 -10 -11
-10 -5 0 -7 5 -4 10 3 6 8 10 11 10 2 0 4 -4 4 -10z"/>
<path d="M5740 5435 c-12 -15 -10 -16 21 -13 37 3 46 21 13 26 -11 2 -27 -4
-34 -13z"/>
<path d="M6150 5435 c0 -9 9 -15 25 -15 16 0 25 6 25 15 0 9 -9 15 -25 15 -16
0 -25 -6 -25 -15z"/>
<path d="M5644 5389 c-9 -15 12 -33 30 -26 9 4 16 13 16 22 0 17 -35 21 -46 4z"/>
<path d="M6257 5394 c-10 -11 5 -34 22 -34 23 0 31 9 24 26 -5 14 -34 19 -46
8z"/>
<path d="M5578 5333 c-18 -16 -35 -32 -37 -37 -2 -5 -14 -19 -27 -31 -13 -12
-24 -32 -24 -44 0 -14 -6 -21 -19 -21 -22 0 -31 -19 -31 -64 0 -66 37 -55 46
14 5 40 10 50 28 52 13 2 22 12 24 27 2 13 12 26 23 28 11 3 22 16 25 29 4 13
15 24 27 26 14 2 23 11 25 26 5 30 -19 28 -60 -5z"/>
<path d="M6312 5333 c2 -10 14 -19 26 -21 19 -3 23 1 20 15 -2 10 -14 19 -26
21 -19 3 -23 -1 -20 -15z"/>
<path d="M6365 5300 c-10 -17 5 -50 24 -50 12 0 21 -14 29 -45 7 -27 18 -45
27 -45 10 0 16 -16 21 -50 4 -29 14 -56 25 -66 18 -16 19 -16 21 2 4 58 -8
114 -27 114 -8 0 -17 16 -22 43 -7 33 -13 43 -31 45 -15 2 -22 10 -22 27 0 12
-7 26 -16 29 -21 8 -22 8 -29 -4z"/>
<path d="M975 5291 c-16 -4 -29 -12 -28 -18 1 -6 -11 -13 -27 -17 -21 -4 -31
-13 -36 -31 -3 -14 -12 -25 -19 -25 -9 0 -16 -19 -20 -52 -3 -29 -5 -453 -3
-941 3 -811 4 -889 19 -898 9 -5 20 -20 23 -34 4 -14 11 -25 16 -25 6 0 10 -6
10 -14 0 -20 18 -24 143 -32 124 -7 141 -3 190 48 24 25 31 27 44 16 14 -11
15 -48 11 -315 -7 -409 4 -663 31 -723 15 -33 21 -66 21 -125 0 -92 7 -125 25
-125 16 0 21 -16 30 -91 5 -43 11 -58 24 -62 12 -3 20 -18 25 -45 4 -26 13
-45 26 -52 11 -6 20 -17 20 -24 0 -22 29 -74 45 -80 8 -3 15 -14 15 -25 0 -12
9 -21 25 -25 18 -5 25 -13 25 -31 0 -18 5 -25 20 -25 13 0 22 -9 26 -25 4 -15
13 -25 23 -25 10 0 23 -11 29 -25 6 -14 19 -25 27 -25 9 0 20 -11 25 -25 5
-14 17 -25 26 -25 9 0 27 -11 40 -25 13 -14 37 -28 54 -31 16 -4 30 -13 30
-20 0 -8 19 -19 46 -26 25 -7 50 -20 55 -29 5 -10 28 -20 55 -24 29 -4 54 -15
64 -27 12 -16 32 -22 76 -26 32 -2 64 -9 69 -16 14 -17 87 -34 170 -40 39 -2
86 -11 105 -19 86 -36 363 -42 1875 -41 1614 0 1834 6 1880 44 8 6 67 15 132
20 84 6 121 13 128 24 6 8 40 20 76 26 36 7 71 20 81 30 9 10 36 21 60 25 23
4 57 18 74 31 17 13 38 24 47 24 9 0 22 9 29 19 8 11 30 22 51 26 23 5 37 13
37 22 0 8 14 20 30 26 17 6 32 19 35 28 3 9 17 21 30 27 14 6 25 18 25 26 0 7
9 16 21 19 11 3 23 15 26 26 3 12 11 21 19 21 7 0 20 14 29 30 9 16 22 30 30
30 8 0 15 9 15 20 0 12 10 25 25 32 14 6 25 20 25 30 0 10 9 26 20 36 11 9 25
33 30 53 7 23 18 39 30 42 14 4 20 14 20 35 0 38 19 94 37 108 9 8 16 40 20
85 3 44 12 81 21 91 23 27 31 89 33 258 2 150 10 256 25 350 12 70 8 489 -5
503 -5 7 -8 22 -5 33 8 30 70 21 78 -12 7 -26 9 -26 126 -27 172 0 179 1 186
28 4 15 13 25 24 25 19 0 30 27 30 73 0 15 9 53 20 84 19 55 20 83 20 844 0
655 -2 788 -14 798 -7 6 -16 38 -20 71 -9 76 -24 120 -42 120 -8 0 -17 6 -20
14 -3 8 -12 17 -21 20 -25 10 -247 17 -258 9 -6 -4 -25 -33 -44 -63 -33 -53
-34 -59 -42 -195 -4 -77 -11 -162 -17 -190 -6 -27 -16 -138 -23 -245 -11 -169
-14 -216 -18 -252 -1 -5 -7 -8 -15 -8 -10 0 -17 16 -22 47 -4 26 -12 52 -18
58 -13 13 -55 14 -74 1 -7 -4 -16 -5 -19 -2 -4 3 0 6 7 6 12 0 12 2 1 13 -10
9 -15 9 -18 1 -2 -7 -13 -10 -23 -7 -11 3 -20 0 -20 -6 0 -6 5 -11 11 -11 5 0
7 -4 4 -10 -10 -17 -38 -12 -31 5 3 9 -3 24 -15 36 -12 12 -18 27 -14 39 5 17
-10 38 -21 27 -3 -3 -11 -101 -19 -218 -8 -118 -21 -266 -30 -329 -8 -63 -19
-241 -25 -395 -6 -154 -12 -318 -15 -365 -2 -47 -4 -105 -5 -129 0 -24 -3 -41
-7 -37 -4 4 -7 26 -6 49 1 38 1 39 -7 12 l-8 -30 -1 36 c-1 23 -7 39 -16 43
-8 3 -15 14 -15 25 0 34 -27 33 -132 -5 -27 -9 -48 -20 -48 -25 0 -13 -38 -11
-42 3 -3 9 -26 9 -99 -1 -52 -7 -134 -17 -184 -22 -49 -6 -95 -15 -102 -21 -8
-7 -13 -7 -13 0 0 14 -151 27 -159 13 -9 -15 -183 -6 -210 11 -18 11 -23 11
-31 -2 -5 -8 -10 -10 -10 -5 0 19 -48 32 -99 27 -37 -3 -51 -1 -51 8 0 9 -6 8
-19 -4 -18 -17 -19 -17 -25 1 -8 24 -104 45 -160 36 -31 -5 -42 -2 -52 12 -15
20 -18 13 -15 -32 1 -11 -2 -24 -8 -27 -17 -11 -130 12 -147 29 -14 14 -125
15 -1074 13 -965 -3 -1060 -4 -1072 -19 -17 -22 -106 -33 -127 -17 -14 12 -15
11 -1 -6 13 -17 13 -18 -5 -14 -22 4 -22 36 -2 51 8 6 5 7 -5 3 -10 -3 -18 -1
-18 5 0 7 -13 9 -35 5 -30 -6 -34 -5 -29 11 4 11 3 14 -3 7 -4 -6 -30 -14 -58
-18 -27 -4 -75 -16 -105 -25 -30 -10 -77 -19 -104 -20 -28 -1 -53 -4 -56 -6
-9 -5 -199 -24 -312 -30 -61 -4 -88 -2 -88 6 0 8 -23 9 -79 4 -63 -6 -91 -3
-132 10 -40 14 -73 16 -140 13 -56 -4 -89 -2 -92 5 -1 5 -30 12 -63 15 -33 2
-67 11 -76 20 -16 14 -20 13 -36 -1 -10 -10 -21 -15 -24 -12 -3 3 -4 -5 -1
-17 2 -13 -1 -30 -7 -38 -9 -13 -11 -13 -19 0 -7 9 -6 17 1 21 7 5 7 8 -1 10
-6 2 -16 33 -22 69 -5 36 -14 66 -19 68 -5 2 -7 9 -4 16 3 7 0 25 -5 39 -8 19
-7 27 0 27 8 0 8 4 1 13 -5 6 -13 95 -16 197 -20 614 -26 721 -42 768 -8 23
-14 54 -14 68 0 13 -7 27 -15 30 -9 4 -15 19 -15 35 0 16 -4 29 -10 29 -5 0
-7 -7 -4 -15 3 -8 -4 -27 -16 -42 -12 -16 -17 -29 -11 -31 13 -4 5 -22 -10
-22 -5 0 -9 9 -9 20 0 15 -7 20 -29 20 -16 0 -43 3 -60 6 -27 6 -33 3 -38 -14
-3 -12 -12 -22 -21 -24 -11 -2 -17 -15 -18 -38 -2 -49 -15 -110 -23 -110 -4 0
-7 21 -6 48 0 26 -2 52 -6 57 -5 8 -29 606 -29 728 0 26 -4 37 -15 37 -8 0
-15 8 -15 19 0 32 -29 91 -45 91 -8 0 -15 6 -15 14 0 8 -7 17 -16 20 -20 8
-170 6 -209 -3z m213 -340 c16 -51 16 -466 1 -527 l-12 -45 -41 7 c-22 3 -44
10 -47 16 -3 5 -12 11 -20 12 -36 8 -79 29 -79 39 0 6 -9 30 -21 54 -19 39
-21 57 -17 184 2 120 6 143 21 153 9 7 17 21 17 30 0 33 20 55 58 63 47 9 42
8 74 21 14 6 29 16 33 21 12 20 22 11 33 -28z m6552 4 c7 -8 27 -15 45 -15 49
0 92 -45 106 -111 17 -79 7 -325 -15 -367 -9 -18 -21 -30 -26 -27 -4 3 -16 -2
-24 -11 -12 -11 -16 -12 -16 -2 0 10 -3 9 -10 -2 -5 -8 -10 -11 -10 -7 0 5 -7
1 -16 -8 -12 -12 -19 -13 -24 -5 -5 7 -9 4 -13 -11 -6 -21 -7 -21 -29 -6 -13
8 -22 21 -20 27 1 7 -4 17 -13 24 -25 18 -38 144 -32 321 6 174 10 195 37 195
11 0 22 5 25 10 9 14 21 12 35 -5z m-4584 -1804 c10 8 21 8 44 -2 l30 -14 -38
-13 c-33 -11 -38 -11 -49 5 -7 9 -13 22 -12 27 0 6 3 5 6 -2 4 -10 8 -10 19
-1z m2542 -13 c3 -13 -3 -18 -22 -18 -20 0 -26 5 -26 21 0 15 5 20 22 17 13
-2 24 -11 26 -20z m-2576 -70 c-12 -12 -32 -2 -32 17 0 18 34 24 38 7 2 -8 -1
-19 -6 -24z m2624 34 c6 -4 11 -14 11 -23 0 -11 -7 -14 -24 -11 -14 3 -23 11
-23 23 0 19 16 24 36 11z m44 -62 c0 -11 -6 -20 -14 -20 -12 0 -14 14 -7 38 1
1 6 2 11 2 6 0 10 -9 10 -20z m-2712 -7 c-5 -26 -33 -28 -35 -3 -1 14 4 20 18
20 14 0 19 -6 17 -17z m2762 -47 c0 -8 -4 -18 -10 -21 -5 -3 -10 3 -10 14 0
12 5 21 10 21 6 0 10 -6 10 -14z m-2583 -47 c8 -8 40 -8 114 0 56 5 106 8 110
5 4 -2 10 -19 14 -37 4 -17 14 -43 23 -57 13 -20 17 -58 20 -186 l4 -161 -31
-6 c-45 -9 -159 4 -172 20 -7 7 -29 16 -51 19 -29 5 -42 13 -49 30 -4 13 -15
24 -24 24 -9 0 -20 11 -25 24 -5 13 -18 27 -28 31 -25 7 -37 95 -27 186 6 50
11 62 31 71 13 6 24 17 24 24 0 22 48 32 67 13z m1365 -3 c10 -7 16 -15 13
-18 -2 -2 81 -5 186 -5 176 -2 193 0 212 18 12 10 24 16 28 12 17 -17 30 -156
27 -298 l-3 -150 -251 -3 c-156 -1 -262 2 -279 8 l-27 10 3 158 c3 135 7 161
22 176 9 10 17 28 17 40 0 12 3 26 8 30 4 4 8 12 8 17 3 17 4 19 12 19 4 0 15
-7 24 -14z m-760 -7 c5 -14 302 -13 363 1 59 14 63 13 74 -22 16 -52 26 -370
12 -396 -12 -22 -14 -22 -275 -22 -224 0 -265 2 -276 15 -10 12 -11 53 -6 173
7 180 13 222 31 222 8 0 17 9 20 20 7 22 51 28 57 9z m1532 -4 c7 -20 188 -22
208 -2 27 28 97 -9 98 -50 0 -7 8 -16 18 -22 24 -13 25 -134 1 -153 -9 -7 -20
-26 -23 -41 -9 -38 -91 -117 -121 -117 -13 0 -31 -7 -40 -16 -10 -10 -47 -21
-95 -27 -107 -14 -110 -11 -110 107 0 90 16 299 25 324 6 17 32 15 39 -3z"/>
<path d="M4395 4851 c-16 -10 -31 -27 -33 -38 -2 -12 -11 -23 -21 -26 -13 -3
-21 -18 -26 -45 -4 -28 -13 -43 -26 -47 -10 -4 -19 -14 -19 -22 0 -29 -24 -83
-36 -83 -6 0 -15 -16 -18 -35 -4 -19 -18 -47 -31 -61 -15 -16 -25 -39 -25 -55
0 -17 -10 -39 -22 -51 -12 -12 -24 -30 -25 -39 -5 -30 -22 -69 -31 -69 -5 0
-15 -20 -22 -45 -7 -25 -21 -50 -30 -55 -11 -6 -20 -27 -24 -54 -5 -31 -13
-47 -26 -51 -12 -4 -21 -20 -25 -48 -4 -23 -16 -48 -26 -55 -11 -7 -22 -31
-25 -53 -4 -23 -14 -44 -24 -49 -11 -6 -21 -27 -25 -50 -4 -22 -13 -46 -20
-54 -8 -7 -17 -29 -20 -49 -6 -32 -2 -45 31 -95 11 -17 143 -23 519 -26 399
-3 585 3 635 19 45 14 48 147 5 193 -13 14 -26 42 -29 63 -3 21 -12 42 -19 46
-7 4 -19 28 -27 53 -8 25 -20 49 -27 53 -7 4 -17 27 -24 50 -6 23 -19 47 -29
54 -9 7 -20 30 -24 52 -4 24 -14 44 -25 50 -10 6 -22 27 -26 48 -4 21 -15 46
-25 55 -10 9 -21 35 -25 57 -4 26 -13 42 -25 46 -12 4 -20 20 -24 50 -5 30
-13 46 -25 50 -19 6 -31 33 -31 73 0 15 -9 26 -25 32 -16 6 -25 17 -25 32 0
38 -12 68 -25 68 -8 0 -19 17 -25 38 -13 38 -62 93 -83 91 -7 0 -25 -8 -42
-18z m60 -90 c-3 -5 -1 -12 4 -15 4 -3 11 -28 15 -56 4 -30 12 -50 19 -50 7 0
19 -24 27 -52 7 -29 19 -57 27 -63 7 -5 18 -39 25 -75 6 -35 17 -70 24 -77 7
-8 10 -21 7 -30 -4 -11 -3 -14 5 -9 17 10 16 -56 0 -73 -10 -11 -10 -13 0 -7
8 5 12 -1 12 -19 0 -14 -4 -24 -8 -21 -5 3 -9 -1 -9 -9 0 -8 4 -12 9 -9 4 3 8
0 8 -5 0 -6 -5 -11 -11 -11 -7 0 -9 -10 -5 -27 5 -21 4 -24 -4 -13 -9 13 -10
13 -10 0 -1 -9 -6 -5 -15 10 l-15 25 6 -28 c5 -23 4 -26 -11 -21 -15 6 -16 4
-6 -14 7 -14 8 -23 1 -27 -5 -3 -10 1 -10 9 0 9 -4 16 -10 16 -5 0 -10 -7 -10
-15 0 -8 -4 -15 -10 -15 -5 0 -10 9 -10 20 0 11 -4 20 -9 20 -5 0 -7 -8 -4
-18 4 -18 0 -18 -54 -9 -32 5 -70 9 -84 9 -19 -1 -29 5 -32 19 -3 12 -10 18
-16 14 -6 -3 -9 -11 -6 -16 4 -5 1 -9 -4 -9 -6 0 -11 7 -11 15 0 8 -7 15 -15
15 -8 0 -15 5 -15 10 0 6 7 10 15 10 12 0 12 3 -2 18 -17 17 -18 17 -25 -3 -6
-19 -6 -19 -7 2 -1 12 7 27 17 32 11 7 12 11 4 11 -15 0 -15 87 0 107 5 6 13
39 18 73 5 34 15 69 23 79 8 9 20 38 27 64 7 27 19 51 27 54 7 3 13 11 13 19
0 39 23 114 35 114 8 0 18 6 22 14 7 11 22 20 41 25 2 1 1 -3 -3 -8z"/>
<path d="M4428 4113 c7 -3 16 -2 19 1 4 3 -2 6 -13 5 -11 0 -14 -3 -6 -6z"/>
<path d="M4423 3583 c9 -2 25 -2 35 0 9 3 1 5 -18 5 -19 0 -27 -2 -17 -5z"/>
<path d="M5608 3243 c7 -3 16 -2 19 1 4 3 -2 6 -13 5 -11 0 -14 -3 -6 -6z"/>
<path d="M3260 3230 c-24 -8 -23 -8 8 -9 20 -1 31 3 27 9 -3 6 -7 10 -8 9 -1
-1 -13 -5 -27 -9z"/>
<path d="M2951 3214 c0 -11 3 -14 6 -6 3 7 2 16 -1 19 -3 4 -6 -2 -5 -13z"/>
<path d="M5595 3220 c-3 -5 1 -10 10 -10 9 0 13 5 10 10 -3 6 -8 10 -10 10 -2
0 -7 -4 -10 -10z"/>
<path d="M7121 3204 c0 -11 3 -14 6 -6 3 7 2 16 -1 19 -3 4 -6 -2 -5 -13z"/>
<path d="M2880 3199 c0 -5 5 -7 10 -4 6 3 10 8 10 11 0 2 -4 4 -10 4 -5 0 -10
-5 -10 -11z"/>
<path d="M2338 3193 c12 -2 32 -2 45 0 12 2 2 4 -23 4 -25 0 -35 -2 -22 -4z"/>
</g>
</svg>
